<svg width="13" height="13" viewBox="0 0 13 13" fill="none" xmlns="http://www.w3.org/2000/svg">
<path d="M4.49091 12.4091L3.36818 10.5182L1.24091 10.0455L1.44773 7.85909L0 6.20455L1.44773 4.55L1.24091 2.36364L3.36818 1.89091L4.49091 0L6.5 0.856819L8.50909 0L9.63182 1.89091L11.7591 2.36364L11.5523 4.55L13 6.20455L11.5523 7.85909L11.7591 10.0455L9.63182 10.5182L8.50909 12.4091L6.5 11.5523L4.49091 12.4091ZM4.99318 10.9023L6.5 10.2523L8.03637 10.9023L8.86364 9.48409L10.4886 9.1L10.3409 7.44546L11.4341 6.20455L10.3409 4.93409L10.4886 3.27955L8.86364 2.925L8.00682 1.50682L6.5 2.15682L4.96364 1.50682L4.13637 2.925L2.51136 3.27955L2.65909 4.93409L1.56591 6.20455L2.65909 7.44546L2.51136 9.12955L4.13637 9.48409L4.99318 10.9023ZM5.87955 8.30228L9.21819 4.96364L8.39091 4.10682L5.87955 6.61818L4.60909 5.37727L3.78182 6.20455L5.87955 8.30228Z" fill="#D4DCFF"/>
</svg>
