<svg width="14" height="14" viewBox="0 0 14 14" fill="none" xmlns="http://www.w3.org/2000/svg">
<path d="M7.00876 14C6.04626 14 5.13917 13.8163 4.28751 13.4488C3.43584 13.0813 2.69209 12.5796 2.05625 11.9438C1.42042 11.3079 0.918751 10.5642 0.551251 9.71251C0.18375 8.86085 0 7.95376 0 6.99126C0 6.02876 0.18375 5.12459 0.551251 4.27876C0.918751 3.43292 1.42042 2.69209 2.05625 2.05625C2.69209 1.42042 3.43584 0.918751 4.28751 0.551251C5.13917 0.18375 6.04626 0 7.00876 0C7.97126 0 8.87543 0.18375 9.72126 0.551251C10.5671 0.918751 11.3079 1.42042 11.9438 2.05625C12.5796 2.69209 13.0813 3.43292 13.4488 4.27876C13.8163 5.12459 14 6.02876 14 6.99126C14 7.95376 13.8163 8.86085 13.4488 9.71251C13.0813 10.5642 12.5796 11.3079 11.9438 11.9438C11.3079 12.5796 10.5671 13.0813 9.72126 13.4488C8.87543 13.8163 7.97126 14 7.00876 14ZM7.00001 12.565C7.30334 12.145 7.56584 11.7075 7.78751 11.2525C8.00918 10.7975 8.19001 10.3133 8.33001 9.80001H5.67001C5.81001 10.3133 5.99084 10.7975 6.21251 11.2525C6.43418 11.7075 6.69668 12.145 7.00001 12.565ZM5.18001 12.285C4.97001 11.9 4.78626 11.5004 4.62876 11.0863C4.47126 10.6721 4.34001 10.2433 4.23501 9.80001H2.17C2.50834 10.3833 2.93125 10.8909 3.43876 11.3225C3.94626 11.7542 4.52667 12.075 5.18001 12.285ZM8.82001 12.285C9.47335 12.075 10.0538 11.7542 10.5613 11.3225C11.0688 10.8909 11.4917 10.3833 11.83 9.80001H9.76502C9.66001 10.2433 9.52876 10.6721 9.37126 11.0863C9.21376 11.5004 9.03001 11.9 8.82001 12.285ZM1.575 8.40001H3.95501C3.92001 8.16668 3.89376 7.93626 3.87626 7.70876C3.85876 7.48126 3.85001 7.24501 3.85001 7.00001C3.85001 6.75501 3.85876 6.51876 3.87626 6.29126C3.89376 6.06376 3.92001 5.83334 3.95501 5.60001H1.575C1.51667 5.83334 1.47292 6.06376 1.44375 6.29126C1.41459 6.51876 1.4 6.75501 1.4 7.00001C1.4 7.24501 1.41459 7.48126 1.44375 7.70876C1.47292 7.93626 1.51667 8.16668 1.575 8.40001ZM5.35501 8.40001H8.64501C8.68001 8.16668 8.70626 7.93626 8.72376 7.70876C8.74126 7.48126 8.75001 7.24501 8.75001 7.00001C8.75001 6.75501 8.74126 6.51876 8.72376 6.29126C8.70626 6.06376 8.68001 5.83334 8.64501 5.60001H5.35501C5.32001 5.83334 5.29376 6.06376 5.27626 6.29126C5.25876 6.51876 5.25001 6.75501 5.25001 7.00001C5.25001 7.24501 5.25876 7.48126 5.27626 7.70876C5.29376 7.93626 5.32001 8.16668 5.35501 8.40001ZM10.045 8.40001H12.425C12.4834 8.16668 12.5271 7.93626 12.5563 7.70876C12.5854 7.48126 12.6 7.24501 12.6 7.00001C12.6 6.75501 12.5854 6.51876 12.5563 6.29126C12.5271 6.06376 12.4834 5.83334 12.425 5.60001H10.045C10.08 5.83334 10.1063 6.06376 10.1238 6.29126C10.1413 6.51876 10.15 6.75501 10.15 7.00001C10.15 7.24501 10.1413 7.48126 10.1238 7.70876C10.1063 7.93626 10.08 8.16668 10.045 8.40001ZM9.76502 4.20001H11.83C11.4917 3.61667 11.0688 3.10917 10.5613 2.6775C10.0538 2.24584 9.47335 1.925 8.82001 1.715C9.03001 2.1 9.21376 2.49959 9.37126 2.91375C9.52876 3.32792 9.66001 3.75667 9.76502 4.20001ZM5.67001 4.20001H8.33001C8.19001 3.68667 8.00918 3.2025 7.78751 2.7475C7.56584 2.2925 7.30334 1.855 7.00001 1.435C6.69668 1.855 6.43418 2.2925 6.21251 2.7475C5.99084 3.2025 5.81001 3.68667 5.67001 4.20001ZM2.17 4.20001H4.23501C4.34001 3.75667 4.47126 3.32792 4.62876 2.91375C4.78626 2.49959 4.97001 2.1 5.18001 1.715C4.52667 1.925 3.94626 2.24584 3.43876 2.6775C2.93125 3.10917 2.50834 3.61667 2.17 4.20001Z" fill="#737686"/>
</svg>
