<svg width="33" height="55" viewBox="0 0 33 55" fill="none" xmlns="http://www.w3.org/2000/svg">
<path d="M17.6667 34.1667C17.2083 34.1667 16.816 34.0035 16.4896 33.6771C16.1632 33.3507 16 32.9583 16 32.5V22.5C16 22.0417 16.1632 21.6493 16.4896 21.3229C16.816 20.9965 17.2083 20.8333 17.6667 20.8333H31C31.4583 20.8333 31.8507 20.9965 32.1771 21.3229C32.5035 21.6493 32.6667 22.0417 32.6667 22.5V32.5C32.6667 32.9583 32.5035 33.3507 32.1771 33.6771C31.8507 34.0035 31.4583 34.1667 31 34.1667H17.6667ZM24.3333 28.3333L17.6667 24.1667V32.5H31V24.1667L24.3333 28.3333ZM24.3333 26.6667L31 22.5H17.6667L24.3333 26.6667ZM17.6667 24.1667V22.5V24.1667V32.5V24.1667Z" fill="#737686"/>
</svg>
