<svg width="48" height="48" viewBox="0 0 48 48" fill="none" xmlns="http://www.w3.org/2000/svg">
<foreignObject x="-12" y="-12" width="72" height="72"><div xmlns="http://www.w3.org/1999/xhtml" style="backdrop-filter:blur(6px);clip-path:url(#bgblur_0_1_29_clip_path);height:100%;width:100%"></div></foreignObject><g data-figma-bg-blur-radius="12">
<rect width="48" height="48" rx="12" fill="white" fill-opacity="0.1"/>
<path d="M22.4492 27.5C22.8492 27.9 23.3658 28.0958 23.9992 28.0875C24.6325 28.0792 25.0992 27.85 25.3992 27.4L30.9992 19L22.5992 24.6C22.1492 24.9 21.9117 25.3583 21.8867 25.975C21.8617 26.5917 22.0492 27.1 22.4492 27.5ZM23.9992 16C24.9825 16 25.9283 16.1375 26.8367 16.4125C27.745 16.6875 28.5992 17.1 29.3992 17.65L27.4992 18.85C26.9492 18.5667 26.3783 18.3542 25.7867 18.2125C25.195 18.0708 24.5992 18 23.9992 18C21.7825 18 19.895 18.7792 18.3367 20.3375C16.7783 21.8958 15.9992 23.7833 15.9992 26C15.9992 26.7 16.095 27.3917 16.2867 28.075C16.4783 28.7583 16.7492 29.4 17.0992 30H30.8992C31.2825 29.3667 31.5617 28.7083 31.7367 28.025C31.9117 27.3417 31.9992 26.6333 31.9992 25.9C31.9992 25.3 31.9283 24.7167 31.7867 24.15C31.645 23.5833 31.4325 23.0333 31.1492 22.5L32.3492 20.6C32.8492 21.3833 33.245 22.2167 33.5367 23.1C33.8283 23.9833 33.9825 24.9 33.9992 25.85C34.0158 26.8 33.9075 27.7083 33.6742 28.575C33.4408 29.4417 33.0992 30.2667 32.6492 31.05C32.4658 31.35 32.2158 31.5833 31.8992 31.75C31.5825 31.9167 31.2492 32 30.8992 32H17.0992C16.7492 32 16.4158 31.9167 16.0992 31.75C15.7825 31.5833 15.5325 31.35 15.3492 31.05C14.9158 30.3 14.5825 29.5042 14.3492 28.6625C14.1158 27.8208 13.9992 26.9333 13.9992 26C13.9992 24.6167 14.2617 23.3208 14.7867 22.1125C15.3117 20.9042 16.0283 19.8458 16.9367 18.9375C17.845 18.0292 18.9075 17.3125 20.1242 16.7875C21.3408 16.2625 22.6325 16 23.9992 16Z" fill="white"/>
</g>
<defs>
<clipPath id="bgblur_0_1_29_clip_path" transform="translate(12 12)"><rect width="48" height="48" rx="12"/>
</clipPath></defs>
</svg>
