<svg width="14" height="14" viewBox="0 0 14 14" fill="none" xmlns="http://www.w3.org/2000/svg">
<path d="M6.99127 14C6.02415 14 5.11528 13.8165 4.26468 13.4495C3.41407 13.0824 2.67416 12.5843 2.04495 11.9551C1.41573 11.3259 0.917605 10.586 0.550563 9.73535C0.183521 8.88474 0 7.97588 0 7.00875C0 6.13484 0.168956 5.27841 0.506867 4.43946C0.844779 3.60051 1.31669 2.85186 1.9226 2.19351C2.52851 1.53517 3.25677 1.005 4.10737 0.602997C4.95798 0.200999 5.89015 0 6.90388 0C7.14858 0 7.3991 0.0116521 7.65544 0.0349564C7.91179 0.0582606 8.17396 0.0990431 8.44196 0.157304C8.33709 0.681649 8.37205 1.17686 8.54683 1.64295C8.72161 2.10903 8.98379 2.49647 9.33335 2.80525C9.68291 3.11403 10.0995 3.32668 10.583 3.4432C11.0666 3.55972 11.5647 3.53059 12.0774 3.35581C11.7745 4.04329 11.8182 4.70163 12.2085 5.33085C12.5989 5.96006 13.1786 6.28632 13.9476 6.30962C13.9592 6.4378 13.968 6.55723 13.9738 6.66793C13.9796 6.77862 13.9825 6.89806 13.9825 7.02623C13.9825 7.9817 13.799 8.88183 13.432 9.72661C13.0649 10.5714 12.5668 11.3113 11.9376 11.9463C11.3084 12.5814 10.5685 13.0824 9.71787 13.4495C8.86726 13.8165 7.9584 14 6.99127 14ZM5.94258 5.6105C6.23389 5.6105 6.48149 5.50854 6.68541 5.30463C6.88932 5.10072 6.99127 4.85311 6.99127 4.56181C6.99127 4.2705 6.88932 4.0229 6.68541 3.81898C6.48149 3.61507 6.23389 3.51311 5.94258 3.51311C5.65128 3.51311 5.40367 3.61507 5.19976 3.81898C4.99585 4.0229 4.89389 4.2705 4.89389 4.56181C4.89389 4.85311 4.99585 5.10072 5.19976 5.30463C5.40367 5.50854 5.65128 5.6105 5.94258 5.6105ZM4.54433 9.10613C4.83563 9.10613 5.08324 9.00418 5.28715 8.80027C5.49106 8.59635 5.59302 8.34875 5.59302 8.05744C5.59302 7.76614 5.49106 7.51853 5.28715 7.31462C5.08324 7.11071 4.83563 7.00875 4.54433 7.00875C4.25303 7.00875 4.00542 7.11071 3.80151 7.31462C3.59759 7.51853 3.49564 7.76614 3.49564 8.05744C3.49564 8.34875 3.59759 8.59635 3.80151 8.80027C4.00542 9.00418 4.25303 9.10613 4.54433 9.10613ZM9.08866 9.80526C9.28674 9.80526 9.45278 9.73826 9.58678 9.60426C9.72078 9.47026 9.78778 9.30422 9.78778 9.10613C9.78778 8.90805 9.72078 8.74201 9.58678 8.60801C9.45278 8.47401 9.28674 8.40701 9.08866 8.40701C8.89057 8.40701 8.72453 8.47401 8.59053 8.60801C8.45653 8.74201 8.38953 8.90805 8.38953 9.10613C8.38953 9.30422 8.45653 9.47026 8.59053 9.60426C8.72453 9.73826 8.89057 9.80526 9.08866 9.80526ZM6.99127 12.6018C8.41283 12.6018 9.67417 12.1124 10.7753 11.1336C11.8764 10.1548 12.4794 8.90805 12.5843 7.39327C12.0017 7.13693 11.5443 6.78736 11.2123 6.34458C10.8802 5.9018 10.6559 5.40658 10.5393 4.85894C9.64213 4.73076 8.87309 4.34624 8.23222 3.70538C7.59136 3.06451 7.19519 2.29547 7.04371 1.39825C6.11154 1.37495 5.29298 1.54391 4.58802 1.90512C3.88307 2.26634 3.29464 2.72951 2.82273 3.29464C2.35082 3.85977 1.99543 4.47442 1.75656 5.13859C1.51769 5.80276 1.39825 6.42615 1.39825 7.00875C1.39825 8.55848 1.94299 9.87809 3.03246 10.9676C4.12194 12.057 5.44154 12.6018 6.99127 12.6018Z" fill="#737686"/>
</svg>
