<svg width="30" height="55" viewBox="0 0 30 55" fill="none" xmlns="http://www.w3.org/2000/svg">
<path d="M17.6667 36.25C17.2083 36.25 16.816 36.0868 16.4896 35.7604C16.1632 35.434 16 35.0417 16 34.5833V26.25C16 25.7917 16.1632 25.3993 16.4896 25.0729C16.816 24.7465 17.2083 24.5833 17.6667 24.5833H18.5V22.9167C18.5 21.7639 18.9062 20.7812 19.7188 19.9688C20.5312 19.1562 21.5139 18.75 22.6667 18.75C23.8194 18.75 24.8021 19.1562 25.6146 19.9688C26.4271 20.7812 26.8333 21.7639 26.8333 22.9167V24.5833H27.6667C28.125 24.5833 28.5174 24.7465 28.8438 25.0729C29.1701 25.3993 29.3333 25.7917 29.3333 26.25V34.5833C29.3333 35.0417 29.1701 35.434 28.8438 35.7604C28.5174 36.0868 28.125 36.25 27.6667 36.25H17.6667ZM17.6667 34.5833H27.6667V26.25H17.6667V34.5833ZM22.6667 32.0833C23.125 32.0833 23.5174 31.9201 23.8438 31.5938C24.1701 31.2674 24.3333 30.875 24.3333 30.4167C24.3333 29.9583 24.1701 29.566 23.8438 29.2396C23.5174 28.9132 23.125 28.75 22.6667 28.75C22.2083 28.75 21.816 28.9132 21.4896 29.2396C21.1632 29.566 21 29.9583 21 30.4167C21 30.875 21.1632 31.2674 21.4896 31.5938C21.816 31.9201 22.2083 32.0833 22.6667 32.0833ZM20.1667 24.5833H25.1667V22.9167C25.1667 22.2222 24.9236 21.6319 24.4375 21.1458C23.9514 20.6597 23.3611 20.4167 22.6667 20.4167C21.9722 20.4167 21.3819 20.6597 20.8958 21.1458C20.4097 21.6319 20.1667 22.2222 20.1667 22.9167V24.5833ZM17.6667 34.5833V26.25V34.5833Z" fill="#737686"/>
</svg>
